<svg width="59" height="59" viewBox="0 0 59 59" fill="none" xmlns="http://www.w3.org/2000/svg">
<circle cx="29.5" cy="29.5" r="29.5" fill="#363636"/>
<path d="M37.4933 22.56C36.7467 21.8133 35.6267 21.8133 34.88 22.56L30.0267 27.4133L25.1733 22.56C24.4267 21.8133 23.3067 21.8133 22.56 22.56C21.8133 23.3067 21.8133 24.4267 22.56 25.1733L27.4133 30.0267L22.56 34.88C21.8133 35.6267 21.8133 36.7467 22.56 37.4933C22.9333 37.8667 23.4933 38.0533 23.8667 38.0533C24.24 38.0533 24.8 37.8667 25.1733 37.4933L30.0267 32.64L34.88 37.4933C35.2533 37.8667 35.8133 38.0533 36.1867 38.0533C36.56 38.0533 37.12 37.8667 37.4933 37.4933C38.24 36.7467 38.24 35.6267 37.4933 34.88L32.64 30.0267L37.4933 25.1733C38.24 24.4267 38.24 23.3067 37.4933 22.56Z" fill="white"/>
</svg>
