<svg width="28" height="28" viewBox="0 0 28 28" fill="none" xmlns="http://www.w3.org/2000/svg">
<circle cx="14" cy="14" r="14" fill="#434343"/>
<path d="M18.6163 8.38372C18.1047 7.87209 17.3372 7.87209 16.8256 8.38372L13.5 11.7093L10.1744 8.38372C9.66279 7.87209 8.89535 7.87209 8.38372 8.38372C7.87209 8.89535 7.87209 9.66279 8.38372 10.1744L11.7093 13.5L8.38372 16.8256C7.87209 17.3372 7.87209 18.1047 8.38372 18.6163C8.63953 18.8721 9.02326 19 9.27907 19C9.53488 19 9.9186 18.8721 10.1744 18.6163L13.5 15.2907L16.8256 18.6163C17.0814 18.8721 17.4651 19 17.7209 19C17.9767 19 18.3605 18.8721 18.6163 18.6163C19.1279 18.1047 19.1279 17.3372 18.6163 16.8256L15.2907 13.5L18.6163 10.1744C19.1279 9.66279 19.1279 8.89535 18.6163 8.38372Z" fill="white"/>
</svg>
