<svg width="102" height="102" viewBox="0 0 102 102" fill="none" xmlns="http://www.w3.org/2000/svg">
<circle cx="51" cy="51" r="51" fill="#A4E451"/>
<path d="M93 50.5C93 73.4198 74.4198 92 51.5 92C28.5802 92 10 73.4198 10 50.5C10 27.5802 28.5802 9 51.5 9C74.4198 9 93 27.5802 93 50.5Z" fill="white"/>
<path d="M37.0455 71V50.3991L30.6948 44.5542L25 41.3106V67.3645C25 69.376 26.62 71 28.6137 71H37.0455Z" fill="#4285F4"/>
<path d="M65.9545 71H74.3863C76.386 71 78 69.37 78 67.3645V41.3109L71.5497 45.0259L65.9545 50.3991V71Z" fill="#34A853"/>
<path d="M37.0455 50.3991L36.1813 42.3498L37.0455 34.6457L51.5 45.552L65.9545 34.6457L66.9211 41.9338L65.9545 50.3991L51.5 61.3054L37.0455 50.3991Z" fill="#EA4335"/>
<path d="M65.9545 34.6457V50.3991L78 41.3109V36.4634C78 31.9677 72.8988 29.4048 69.3275 32.101L65.9545 34.6457Z" fill="#FBBC04"/>
<path d="M25 41.3106L37.0455 50.3991V34.6457L33.6725 32.101C30.095 29.4046 25 31.9677 25 36.4632V41.3106Z" fill="#C5221F"/>
</svg>
