<svg width="173" height="127" viewBox="0 0 173 127" fill="none" xmlns="http://www.w3.org/2000/svg">
<path d="M0.5 51.4865C0.5 23.0513 23.6021 0 52.1 0H120.9C149.398 0 172.5 23.0513 172.5 51.4865V75.5135C172.5 103.949 149.398 127 120.9 127H52.1C23.6021 127 0.5 103.949 0.5 75.5135V51.4865Z" fill="white"/>
<path d="M65.8601 90.6807V61.6559L56.7918 53.4209L48.66 48.8511V85.5586C48.66 88.3927 50.9733 90.6807 53.8201 90.6807H65.8601Z" fill="#4285F4"/>
<path d="M107.14 90.6807H119.18C122.035 90.6807 124.34 88.3842 124.34 85.5586V48.8514L115.13 54.0856L107.14 61.6559V90.6807Z" fill="#34A853"/>
<path d="M65.8601 61.6559L64.6261 50.3151L65.8601 39.4608L86.5 54.8268L107.14 39.4608L108.52 49.7291L107.14 61.6559L86.5 77.0219L65.8601 61.6559Z" fill="#EA4335"/>
<path d="M107.14 39.4608V61.6559L124.34 48.8514V42.0217C124.34 35.6877 117.056 32.0768 111.956 35.8755L107.14 39.4608Z" fill="#FBBC04"/>
<path d="M48.66 48.8511L65.8601 61.6559V39.4608L61.0437 35.8755C55.9353 32.0766 48.66 35.6877 48.66 42.0215V48.8511Z" fill="#C5221F"/>
</svg>
