<svg width="25" height="23" viewBox="0 0 25 23" fill="none" xmlns="http://www.w3.org/2000/svg">
<path d="M24.1919 8.2146H22.6244V4.10756C22.6244 3.88971 22.5392 3.68078 22.3877 3.52673C22.2362 3.37269 22.0307 3.28615 21.8164 3.28615H2.42404C2.20974 3.28615 2.00422 3.19961 1.85269 3.04556C1.70116 2.89152 1.61603 2.68259 1.61603 2.46474C1.61603 2.24689 1.70116 2.03796 1.85269 1.88392C2.00422 1.72987 2.20974 1.64333 2.42404 1.64333H21.4932C21.7075 1.64333 21.913 1.55679 22.0645 1.40275C22.216 1.2487 22.3012 1.03977 22.3012 0.821922C22.3012 0.604071 22.216 0.395142 22.0645 0.241098C21.913 0.0870543 21.7075 0.000513095 21.4932 0.000513095H2.42404C2.11206 -0.00602547 1.80187 0.0499843 1.51119 0.165343C1.22051 0.280702 0.955031 0.453149 0.729924 0.672834C0.504818 0.892518 0.324493 1.15514 0.199251 1.44568C0.0740083 1.73623 0.00630199 2.04902 0 2.36617V19.6158C0.0010576 20.0619 0.0886908 20.5035 0.257881 20.9153C0.42707 21.327 0.674493 21.7007 0.985979 22.0151C1.29746 22.3294 1.66689 22.5782 2.07311 22.7472C2.47932 22.9162 2.91434 23.0021 3.35326 23H21.8164C22.0307 23 22.2362 22.9134 22.3877 22.7594C22.5392 22.6053 22.6244 22.3964 22.6244 22.1786V18.0715H24.1919C24.2939 18.0794 24.3964 18.0659 24.4931 18.0321C24.5898 17.9983 24.6787 17.9447 24.7544 17.8748C24.83 17.8048 24.8908 17.7198 24.933 17.6251C24.9753 17.5304 24.998 17.428 24.9999 17.324V9.10994C25.0026 8.8842 24.9205 8.66592 24.7704 8.49957C24.6203 8.33322 24.4134 8.23131 24.1919 8.2146ZM23.4324 16.4287H16.4996C15.6716 16.3987 14.8891 16.0359 14.324 15.4198C13.7589 14.8038 13.4574 13.9849 13.4857 13.1431C13.4574 12.3012 13.7589 11.4824 14.324 10.8663C14.8891 10.2503 15.6716 9.8874 16.4996 9.85742H23.4324V16.4287Z" fill="white"/>
</svg>
