<svg width="81" height="77" viewBox="0 0 81 77" fill="none" xmlns="http://www.w3.org/2000/svg">
<rect x="1" y="1" width="79" height="75" rx="37.5" stroke="white" stroke-width="2"/>
<path d="M39.4976 30.2279C34.9369 30.2279 31.2275 33.9367 31.2275 38.4967C31.2275 43.0566 34.9369 46.7655 39.4976 46.7655C44.0583 46.7655 47.7677 43.0566 47.7677 38.4967C47.7677 33.9367 44.0583 30.2279 39.4976 30.2279ZM39.4976 43.458C36.7607 43.458 34.5355 41.2331 34.5355 38.4967C34.5355 35.7602 36.7607 33.5354 39.4976 33.5354C42.2345 33.5354 44.4597 35.7602 44.4597 38.4967C44.4597 41.2331 42.2345 43.458 39.4976 43.458ZM59.8047 42.8031C58.2741 41.9167 57.3214 40.2673 57.3192 38.4967C57.317 36.7305 58.2631 35.0833 59.8135 34.1859C60.9492 33.5266 61.3374 32.0646 60.6802 30.9268L56.9928 24.5632C56.3356 23.4276 54.8734 23.0373 53.7354 23.6922C52.1939 24.5808 50.2775 24.5809 48.7315 23.6834C47.2076 22.7992 46.2593 21.1564 46.2593 19.3946C46.2593 18.0738 45.1831 17 43.862 17H35.1398C33.8165 17 32.7426 18.0738 32.7426 19.3946C32.7426 21.1564 31.7942 22.7992 30.2659 23.6878C28.7244 24.5808 26.8101 24.583 25.2686 23.6944C24.1284 23.0373 22.6685 23.4298 22.0113 24.5654L18.3195 30.9357C17.6623 32.0713 18.0526 33.5309 19.1994 34.1969C20.7277 35.0811 21.6804 36.7282 21.6848 38.4944C21.6893 40.2629 20.7409 41.9144 19.1928 42.8119C18.6414 43.1316 18.2445 43.6454 18.0813 44.2628C17.9181 44.878 18.0019 45.5196 18.3217 46.0731L22.0068 52.4324C22.664 53.5702 24.1262 53.9649 25.2686 53.3055C26.8101 52.4169 28.7222 52.4192 30.2417 53.299L30.2461 53.3011C30.2527 53.3055 30.2593 53.31 30.2681 53.3144C31.792 54.1986 32.7381 55.8413 32.7359 57.6053C32.7359 58.9261 33.8099 60 35.1309 60H43.862C45.1831 60 46.2571 58.9261 46.2571 57.6075C46.2571 55.8435 47.2054 54.2008 48.7359 53.3121C50.2752 52.4191 52.1895 52.4147 53.7332 53.3055C54.8712 53.9626 56.3312 53.5723 56.9906 52.4367L60.6823 46.0665C61.3373 44.9265 60.947 43.4646 59.8047 42.8031ZM54.5625 50.0223C52.1586 48.9749 49.3688 49.1183 47.0708 50.4479C44.7927 51.7687 43.2886 54.1038 42.9975 56.688H35.9911C35.7044 54.1038 34.1959 51.7643 31.9177 50.4457C29.6241 49.116 26.83 48.9749 24.4327 50.0223L21.6187 45.1646C23.7248 43.6145 24.9973 41.1273 24.9885 38.4813C24.9818 35.8529 23.7116 33.3832 21.6165 31.8331L24.4327 26.9732C26.8322 28.0184 29.6264 27.8773 31.9244 26.5455C34.2003 25.2269 35.7043 22.8896 35.9954 20.3075H42.9975C43.2864 22.8918 44.7927 25.2269 47.0753 26.5499C49.3666 27.8795 52.1608 28.0206 54.5625 26.9755L57.3787 31.8331C55.277 33.381 54.0067 35.8639 54.0111 38.5055C54.0133 41.1383 55.2836 43.6123 57.381 45.1668L54.5625 50.0223Z" fill="white"/>
</svg>
