<svg width="68" height="65" viewBox="0 0 68 65" fill="none" xmlns="http://www.w3.org/2000/svg">
<rect x="1" y="1" width="66" height="63" rx="31.5" stroke="#0D0D0D" stroke-width="2"/>
<path d="M33.498 25.0745C29.7858 25.0745 26.7665 28.1796 26.7665 31.9972C26.7665 35.8149 29.7858 38.9199 33.498 38.9199C37.2102 38.9199 40.2295 35.8149 40.2295 31.9972C40.2295 28.1796 37.2102 25.0745 33.498 25.0745ZM33.498 36.1508C31.2704 36.1508 29.4591 34.2882 29.4591 31.9972C29.4591 29.7063 31.2704 27.8436 33.498 27.8436C35.7257 27.8436 37.5369 29.7063 37.5369 31.9972C37.5369 34.2882 35.7257 36.1508 33.498 36.1508ZM50.027 35.6026C48.7813 34.8605 48.0058 33.4796 48.004 31.9972C48.0022 30.5185 48.7723 29.1395 50.0342 28.3882C50.9587 27.8362 51.2746 26.6122 50.7397 25.6597L47.7383 20.332C47.2034 19.3812 46.0132 19.0545 45.087 19.6028C43.8322 20.3468 42.2724 20.3468 41.014 19.5954C39.7736 18.8551 39.0017 17.4798 39.0017 16.0048C39.0017 14.899 38.1257 14 37.0505 14H29.951C28.8739 14 27.9998 14.899 27.9998 16.0048C27.9998 17.4798 27.2279 18.8551 25.9839 19.5991C24.7291 20.3467 23.171 20.3486 21.9163 19.6046C20.9882 19.0545 19.7999 19.3831 19.265 20.3338L16.26 25.6671C15.7251 26.6178 16.0428 27.8399 16.9762 28.3974C18.2202 29.1376 18.9957 30.5167 18.9993 31.9954C19.0029 33.4759 18.231 34.8586 16.9709 35.6099C16.5221 35.8776 16.199 36.3077 16.0661 36.8246C15.9333 37.3397 16.0015 37.8769 16.2618 38.3403L19.2614 43.6643C19.7963 44.6169 20.9864 44.9473 21.9163 44.3953C23.171 43.6514 24.7274 43.6532 25.9642 44.3898L25.9677 44.3916C25.9731 44.3953 25.9785 44.399 25.9857 44.4027C27.2261 45.143 27.9961 46.5183 27.9944 47.9951C27.9944 49.1009 28.8685 50 29.9438 50H37.0505C38.1257 50 38.9999 49.1009 38.9999 47.997C38.9999 46.5201 39.7718 45.1448 41.0176 44.4009C42.2705 43.6532 43.8286 43.6495 45.0852 44.3953C46.0114 44.9455 47.1998 44.6187 47.7365 43.668L50.7414 38.3348C51.2746 37.3803 50.9569 36.1564 50.027 35.6026ZM45.7601 41.6465C43.8035 40.7697 41.5328 40.8897 39.6623 42.0029C37.808 43.1087 36.5838 45.0636 36.3468 47.2272H30.6439C30.4105 45.0636 29.1827 43.105 27.3284 42.001C25.4615 40.8878 23.1872 40.7697 21.236 41.6465L18.9454 37.5797C20.6597 36.2819 21.6955 34.1996 21.6883 31.9843C21.6829 29.7838 20.6489 27.7162 18.9436 26.4184L21.236 22.3497C23.189 23.2247 25.4633 23.1066 27.3338 21.9915C29.1863 20.8876 30.4105 18.9308 30.6475 16.7691H36.3468C36.582 18.9327 37.808 20.8876 39.6659 21.9953C41.531 23.1084 43.8053 23.2266 45.7601 22.3515L48.0525 26.4184C46.3418 27.7143 45.3078 29.793 45.3114 32.0046C45.3132 34.2088 46.3472 36.2801 48.0543 37.5815L45.7601 41.6465Z" fill="#0D0D0D"/>
</svg>
