<svg width="59" height="59" viewBox="0 0 59 59" fill="none" xmlns="http://www.w3.org/2000/svg">
<path d="M29.4967 18.1499C23.239 18.1499 18.1493 23.2387 18.1493 29.4954C18.1493 35.7521 23.239 40.841 29.4967 40.841C35.7544 40.841 40.8441 35.7521 40.8441 29.4954C40.8441 23.2387 35.7544 18.1499 29.4967 18.1499ZM29.4967 36.3028C25.7415 36.3028 22.6883 33.2501 22.6883 29.4954C22.6883 25.7408 25.7415 22.6881 29.4967 22.6881C33.2519 22.6881 36.3051 25.7408 36.3051 29.4954C36.3051 33.2501 33.2519 36.3028 29.4967 36.3028ZM57.3599 35.4042C55.2598 34.188 53.9526 31.9249 53.9496 29.4954C53.9465 27.072 55.2447 24.812 57.372 23.5806C58.9303 22.676 59.4629 20.67 58.5612 19.1089L53.5018 10.3774C52.6 8.81927 50.5938 8.28379 49.0324 9.18236C46.9172 10.4016 44.2877 10.4016 42.1665 9.17026C40.0755 7.95704 38.7744 5.70303 38.7744 3.28567C38.7744 1.47341 37.2977 0 35.4851 0H23.5173C21.7018 0 20.2282 1.47341 20.2282 3.28567C20.2282 5.70303 18.927 7.95699 16.83 9.17626C14.7148 10.4016 12.0883 10.4046 9.97315 9.18531C8.40873 8.28372 6.40556 8.82231 5.50383 10.3804L0.438316 19.1211C-0.463423 20.6792 0.0721338 22.682 1.64564 23.5957C3.74264 24.8089 5.0499 27.069 5.05595 29.4924C5.062 31.9188 3.76082 34.1849 1.63659 35.4163C0.880096 35.855 0.335428 36.5599 0.111506 37.407C-0.112416 38.2512 0.00259765 39.1316 0.441363 39.891L5.49773 48.6165C6.39947 50.1777 8.4057 50.7192 9.97315 49.8146C12.0883 48.5953 14.7118 48.5984 16.7967 49.8055L16.8027 49.8085C16.8118 49.8146 16.8209 49.8206 16.833 49.8267C18.924 51.0399 20.2221 53.2938 20.219 55.7142C20.219 57.5265 21.6927 59 23.5052 59H35.4851C37.2977 59 38.7713 57.5265 38.7713 55.7173C38.7713 53.2969 40.0725 51.0429 42.1725 49.8236C44.2846 48.5983 46.9111 48.5923 49.0293 49.8146C50.5907 50.7162 52.594 50.1806 53.4987 48.6225L58.5641 39.882C59.4629 38.3178 58.9273 36.3119 57.3599 35.4042ZM50.1671 45.3096C46.8688 43.8725 43.0409 44.0692 39.8879 45.8936C36.762 47.7059 34.6984 50.9098 34.2989 54.4557H24.6854C24.292 50.9098 22.2222 47.6998 19.0964 45.8905C15.9494 44.0662 12.1155 43.8725 8.82632 45.3096L4.96518 38.6445C7.85498 36.5175 9.60092 33.1049 9.58881 29.4743C9.57973 25.8679 7.8368 22.4793 4.96213 20.3524L8.82632 13.6842C12.1186 15.1183 15.9525 14.9247 19.1056 13.0973C22.2284 11.288 24.292 8.08107 24.6914 4.53823H34.2989C34.6953 8.0841 36.7621 11.2881 39.894 13.1034C43.0379 14.9277 46.8718 15.1213 50.1671 13.6873L54.0313 20.3524C51.1475 22.4763 49.4046 25.883 49.4106 29.5075C49.4136 33.12 51.1566 36.5145 54.0343 38.6475L50.1671 45.3096Z" fill="#0D0D0D"/>
</svg>
