<svg width="44" height="35" viewBox="0 0 44 35" fill="none" xmlns="http://www.w3.org/2000/svg">
<path d="M39.6 30.625H35.2V11.4844L22 19.6875L8.8 11.4844V30.625H4.4V4.375H7.04L22 13.6719L36.96 4.375H39.6M39.6 0H4.4C1.958 0 0 1.94687 0 4.375V30.625C0 31.7853 0.46357 32.8981 1.28873 33.7186C2.11389 34.5391 3.23305 35 4.4 35H39.6C40.767 35 41.8861 34.5391 42.7113 33.7186C43.5364 32.8981 44 31.7853 44 30.625V4.375C44 3.21468 43.5364 2.10188 42.7113 1.28141C41.8861 0.460936 40.767 0 39.6 0Z" fill="#0D0D0D"/>
</svg>
