<svg width="26" height="23" viewBox="0 0 26 23" fill="none" xmlns="http://www.w3.org/2000/svg">
<g clip-path="url(#clip0_1427_672)">
<path d="M17.2048 6.75205L23.6887 7.70439C24.2257 7.78076 24.6769 8.1581 24.8483 8.67471C25.0198 9.1958 24.8799 9.76181 24.4919 10.1481L19.7902 14.7392L20.9002 21.3247C20.9905 21.8638 20.7694 22.4118 20.3182 22.7308C19.8715 23.0497 19.2804 23.0901 18.7976 22.8341L13.004 19.7569L7.21497 22.8341C6.72766 23.0901 6.13657 23.0497 5.68987 22.7308C5.24317 22.4118 5.01757 21.8638 5.11232 21.3247L6.2223 14.7392L1.51977 10.1481C1.13128 9.76181 0.993209 9.1958 1.16377 8.67471C1.33387 8.1581 1.78373 7.78076 2.32473 7.70439L8.80323 6.75205L11.709 0.807538C11.9482 0.312678 12.4535 -0.00146484 13.004 -0.00146484C13.559 -0.00146484 14.0644 0.312678 14.3035 0.807538L17.2048 6.75205Z" fill="#E89E32"/>
</g>
<defs>
<clipPath id="clip0_1427_672">
<rect width="26" height="23" fill="white"/>
</clipPath>
</defs>
</svg>
