<svg width="145" height="145" viewBox="0 0 145 145" fill="none" xmlns="http://www.w3.org/2000/svg">
<path d="M72.5 0C32.48 0 0 32.48 0 72.5C0 112.52 32.48 145 72.5 145C112.52 145 145 112.52 145 72.5C145 32.48 112.52 0 72.5 0ZM106.14 49.3C105.052 60.755 100.34 88.595 97.9475 101.427C96.9325 106.865 94.9025 108.678 93.0175 108.895C88.8125 109.257 85.6225 106.14 81.5625 103.458C75.1825 99.2525 71.5575 96.6425 65.395 92.5825C58.2175 87.87 62.8575 85.26 66.99 81.055C68.0775 79.9675 86.6375 63.075 87 61.5525C87.0504 61.3219 87.0437 61.0825 86.9805 60.8551C86.9173 60.6277 86.7996 60.4191 86.6375 60.2475C86.2025 59.885 85.6225 60.03 85.115 60.1025C84.4625 60.2475 74.3125 66.99 54.52 80.33C51.62 82.2875 49.01 83.3025 46.69 83.23C44.08 83.1575 39.15 81.78 35.4525 80.5475C30.885 79.0975 27.3325 78.3 27.6225 75.7625C27.7675 74.4575 29.58 73.1525 32.9875 71.775C54.1575 62.5675 68.2225 56.4775 75.255 53.5775C95.41 45.1675 99.5425 43.7175 102.298 43.7175C102.878 43.7175 104.255 43.8625 105.125 44.5875C105.85 45.1675 106.067 45.965 106.14 46.545C106.067 46.98 106.212 48.285 106.14 49.3Z" fill="#0D0D0D"/>
</svg>
