<svg width="83" height="83" viewBox="0 0 83 83" fill="none" xmlns="http://www.w3.org/2000/svg">
<path d="M83 41.5C83 64.4198 64.4198 83 41.5 83C18.5802 83 0 64.4198 0 41.5C0 18.5802 18.5802 0 41.5 0C64.4198 0 83 18.5802 83 41.5Z" fill="white"/>
<path d="M27.0455 62V41.3991L20.6948 35.5542L15 32.3106V58.3645C15 60.376 16.62 62 18.6137 62H27.0455Z" fill="#4285F4"/>
<path d="M55.9545 62H64.3863C66.386 62 68 60.37 68 58.3645V32.3109L61.5497 36.0259L55.9545 41.3991V62Z" fill="#34A853"/>
<path d="M27.0455 41.3991L26.1813 33.3498L27.0455 25.6457L41.5 36.552L55.9545 25.6457L56.9211 32.9338L55.9545 41.3991L41.5 52.3054L27.0455 41.3991Z" fill="#EA4335"/>
<path d="M55.9545 25.6457V41.3991L68 32.3109V27.4634C68 22.9677 62.8988 20.4048 59.3275 23.101L55.9545 25.6457Z" fill="#FBBC04"/>
<path d="M15 32.3106L27.0455 41.3991V25.6457L23.6725 23.101C20.095 20.4046 15 22.9677 15 27.4632V32.3106Z" fill="#C5221F"/>
</svg>
