<svg width="166" height="131" viewBox="0 0 166 131" fill="none" xmlns="http://www.w3.org/2000/svg">
<path d="M149.4 114.625H132.8V42.9844L83 73.6875L33.2 42.9844V114.625H16.6V16.375H26.56L83 51.1719L139.44 16.375H149.4M149.4 0H16.6C7.387 0 0 7.28687 0 16.375V114.625C0 118.968 1.74892 123.133 4.86203 126.204C7.97513 129.275 12.1974 131 16.6 131H149.4C153.803 131 158.025 129.275 161.138 126.204C164.251 123.133 166 118.968 166 114.625V16.375C166 12.0321 164.251 7.86703 161.138 4.79613C158.025 1.72522 153.803 0 149.4 0Z" fill="#0D0D0D" fill-opacity="0.2"/>
</svg>
